# Blender v2.78 (sub 0) OBJ File: '3.blend'
# www.blender.org
mtllib French_Fries_01.mtl
o Plane
v 0.201381 1.660629 0.027904
v -1.945340 8.923621 -3.604775
v -0.092513 1.444945 -0.229648
v -2.239234 8.707934 -3.862327
v 0.517356 1.599351 -0.281339
v -1.562460 8.599134 -3.769943
v 0.223462 1.383666 -0.538891
v -1.856354 8.383448 -4.027496
v -1.108722 5.632308 -1.803170
v -1.402616 5.416623 -2.060721
v -1.086641 5.355344 -2.369965
v -0.792747 5.571028 -2.112413
v -0.481387 1.727678 -0.748829
v -1.689907 10.000732 -1.556223
v -0.262928 1.721608 -1.138015
v -1.471448 9.994659 -1.945409
v -0.097489 1.804672 -0.534538
v -1.275877 9.772544 -1.320260
v 0.120970 1.798600 -0.923724
v -1.057417 9.766474 -1.709446
v -1.313123 6.184576 -1.285210
v -1.094665 6.178506 -1.674396
v -0.710766 6.255499 -1.460105
v -0.929225 6.261569 -1.070920
v -0.481387 1.310580 -0.818430
v -1.689907 9.593762 -0.122570
v -0.262928 1.374705 -1.202344
v -1.471448 9.657885 -0.506485
v -0.097489 1.347718 -0.593777
v -1.275877 9.326807 0.068436
v 0.120970 1.411843 -0.977691
v -1.057417 9.390931 -0.315479
v -1.313123 5.791201 -0.543313
v -1.094665 5.855326 -0.927227
v -0.710766 5.892463 -0.702574
v -0.929225 5.828338 -0.318660
v -0.393111 1.378927 -0.529953
v -0.821540 9.647924 0.882822
v -0.806761 1.330085 -0.369532
v -1.235190 9.599083 1.043243
v -0.559249 1.440317 -0.939655
v -0.965946 9.404854 0.436467
v -0.972899 1.391476 -0.779233
v -1.379596 9.356013 0.596888
v -0.549774 5.840755 0.424488
v -0.963424 5.791917 0.584909
v -1.129562 5.853307 0.175208
v -0.715913 5.902147 0.014786
v 0.539750 1.788109 -0.587729
v -2.031239 9.299877 2.154386
v 0.610685 1.658623 -0.166507
v -1.960303 9.170387 2.575608
v 0.120786 1.636025 -0.563926
v -2.340917 8.878811 2.077100
v 0.191721 1.506539 -0.142704
v -2.269982 8.749325 2.498322
v -0.664678 5.936387 0.890300
v -0.593743 5.806902 1.311523
v -1.012707 5.654817 1.335326
v -1.083642 5.784302 0.914104
v -0.293126 1.481776 -0.762060
v -1.310364 8.422633 3.858062
v 0.039799 1.352394 -0.494388
v -0.977440 8.293251 4.125733
v -0.585472 1.266241 -0.502628
v -1.554842 7.961302 3.939151
v -0.252547 1.136859 -0.234956
v -1.221917 7.831923 4.206823
v -0.711793 5.349073 1.627950
v -0.378869 5.219692 1.895623
v -0.671215 5.004158 2.155055
v -1.004139 5.133539 1.887383
v 0.093918 1.457105 -0.106575
v -0.316678 9.331751 2.787762
v 0.436899 1.374488 0.166857
v 0.026303 9.249131 3.061194
v -0.190888 1.325558 0.210926
v -0.576064 8.917209 2.987871
v 0.152092 1.242940 0.484358
v -0.233083 8.834591 3.261304
v 0.001198 5.793029 1.319818
v 0.344179 5.710412 1.593251
v 0.059372 5.578864 1.910751
v -0.283609 5.661481 1.637319
v 0.487828 1.550373 0.017783
v -0.084818 9.785127 1.572377
v 0.275178 1.463344 0.400448
v -0.297468 9.698095 1.955041
v 0.096573 1.563642 -0.196623
v -0.440838 9.496944 1.308993
v -0.116077 1.476612 0.186042
v -0.653488 9.409913 1.691659
v 0.355790 6.015612 0.959932
v 0.143140 5.928582 1.342597
v -0.248115 5.941853 1.128191
v -0.035465 6.028881 0.745526
v 0.492860 1.118584 0.054422
v -0.080244 9.498561 0.112759
v 0.265344 1.100352 0.437998
v -0.307760 9.480329 0.496335
v 0.110061 1.093994 -0.173802
v -0.428100 9.168595 -0.109252
v -0.117455 1.075763 0.209774
v -0.655617 9.150363 0.274324
v 0.356707 5.679986 0.190452
v 0.129191 5.661755 0.574028
v -0.253608 5.637165 0.345803
v -0.026092 5.655396 -0.037773
v 0.394188 1.182125 -0.229698
v -0.937485 9.448319 -0.902344
v 0.808975 1.236275 -0.385410
v -0.522699 9.502470 -1.058056
v 0.543088 1.240027 0.187079
v -0.745360 9.201994 -0.476223
v 0.957875 1.294178 0.031367
v -0.330573 9.256145 -0.631935
v -0.396967 5.644030 -0.785498
v 0.017820 5.698180 -0.941210
v 0.166720 5.756083 -0.524434
v -0.248067 5.701932 -0.368722
v -0.623289 1.363488 -0.155089
v 0.300881 9.464231 -2.174916
v -0.664706 1.260421 -0.587395
v 0.259463 9.361163 -2.607221
v -0.181588 1.305965 -0.183692
v 0.692654 9.112743 -2.128652
v -0.223005 1.202898 -0.615999
v 0.651236 9.009676 -2.560959
v -0.323446 5.788330 -1.238736
v -0.364864 5.685265 -1.671042
v 0.076836 5.627742 -1.699645
v 0.118254 5.730806 -1.267339
v 0.399795 1.490005 -0.382372
v -0.360993 9.276246 -3.440391
v 0.104718 1.342992 -0.683278
v -0.656069 9.129232 -3.741296
v 0.732244 1.409832 -0.669212
v -0.012895 8.914432 -3.604977
v 0.437167 1.262822 -0.970117
v -0.307972 8.767420 -3.905883
v -0.165307 5.754434 -1.911661
v -0.460383 5.607424 -2.212566
v -0.127935 5.527251 -2.499405
v 0.167142 5.674263 -2.198499
v -0.193487 1.389900 -0.116049
v 1.777125 8.968634 2.922918
v -0.010810 1.198300 0.243318
v 1.959802 8.777030 3.282285
v -0.587048 1.408119 0.093724
v 1.325933 8.709198 3.013952
v -0.404370 1.216518 0.453090
v 1.508610 8.517594 3.373320
v 1.056468 5.496672 1.438133
v 1.239146 5.305071 1.797500
v 0.845585 5.323288 2.007272
v 0.662907 5.514889 1.647906
v 0.364486 1.091275 0.958195
v 1.529436 9.320642 -0.256813
v 0.546750 1.125417 1.364200
v 1.711700 9.354780 0.149193
v -0.038222 1.173948 1.132027
v 1.098876 9.099523 -0.044931
v 0.144042 1.208091 1.538032
v 1.281140 9.133665 0.361075
v 1.181165 5.521855 0.218987
v 1.363430 5.555997 0.624992
v 0.960721 5.638670 0.798824
v 0.778457 5.604528 0.392819
v -1.304649 1.667331 1.114733
v 1.990618 8.993863 -1.338622
v -0.902251 1.476461 1.085218
v 2.393015 8.802990 -1.368135
v -1.223157 1.773283 1.540596
v 1.948694 8.828169 -0.838664
v -0.820759 1.582412 1.511081
v 2.351093 8.637299 -0.868179
v 0.447354 5.597046 -0.412112
v 0.849752 5.406176 -0.441626
v 0.931244 5.512127 -0.015763
v 0.528846 5.702997 0.013752
v -1.356244 -0.014431 2.101039
v 1.281582 -0.014431 2.101039
v -1.356244 -0.014431 -2.101933
v 1.281582 -0.014431 -2.101933
v -1.711908 5.618483 -2.668629
v -1.711908 5.618483 2.667736
v 1.637247 5.618483 2.667736
v 1.637247 5.618483 -2.668629
v -0.476968 0.167101 2.101039
v 0.402307 0.167101 2.101039
v 0.402307 0.167101 -2.101933
v -0.476968 0.167101 -2.101933
v -0.595523 5.103257 2.667736
v 0.520862 5.103257 2.667736
v 0.520862 5.103257 -2.668629
v -0.595523 5.103257 -2.668629
v -1.356244 0.189083 -1.051190
v -1.356244 0.287285 -0.000447
v -1.356244 0.189083 1.050296
v 1.281582 0.189083 1.050296
v 1.281582 0.287285 -0.000447
v 1.281582 0.189083 -1.051190
v -1.711908 5.997540 -1.334538
v -1.711908 6.214929 -0.000447
v -1.711908 5.997540 1.333644
v 1.637247 5.997540 1.333644
v 1.637247 6.214929 -0.000447
v 1.637247 5.997540 -1.334538
v 1.136219 1.219675 -1.800254
v 1.136219 1.379536 -0.931215
v 1.136219 1.219675 1.799361
v 0.353853 1.446066 1.799361
v -1.210881 1.219675 1.799361
v -1.210881 1.379536 0.930321
v -0.476968 0.348453 -1.051190
v -0.476968 0.432285 -0.000447
v -0.476968 0.348453 1.050296
v 0.402307 0.348453 -1.051190
v 0.402307 0.432285 -0.000447
v 0.402307 0.348453 1.050296
v -0.428514 1.446066 -1.800254
v -1.210881 1.219675 -1.800254
v -1.527346 5.942087 1.181316
v -1.527346 5.644336 2.424807
v 0.459341 5.103257 2.424807
v 1.452685 5.644336 2.424807
v 1.452685 5.942087 -1.182210
v 1.452685 5.644336 -2.425701
v -0.534002 5.103257 -2.425701
v -1.527346 5.644336 -2.425701
v -0.428514 1.446066 1.799361
v 0.353853 1.446066 -1.800254
v -0.534002 5.103257 2.424807
v 0.459341 5.103257 -2.425701
v -0.382667 1.440872 0.824913
v 0.308005 1.440872 0.824913
v -1.210881 1.379536 -0.931215
v -1.210881 1.456674 -0.000447
v 1.136219 1.379536 0.930321
v 1.136219 1.456674 -0.000447
v -1.527346 5.942087 -1.182210
v -1.527346 6.112845 -0.000447
v 1.452685 5.942087 1.181316
v 1.452685 6.112845 -0.000447
v -0.382667 1.440872 -0.825807
v -0.382667 1.506722 -0.000447
v 0.308005 1.440872 -0.825807
v 0.308005 1.506722 -0.000447
v 1.529732 3.915690 -2.497320
v 1.529732 3.915690 2.496427
v -1.604393 3.915690 2.496427
v -1.604393 3.915690 -2.497320
v -0.559685 3.643338 2.496427
v 0.485023 3.643338 2.496427
v 0.485023 3.643338 -2.497320
v -0.559685 3.643338 -2.497320
v -1.604393 4.241682 -1.248884
v -1.604393 4.423041 -0.000447
v -1.604393 4.241682 1.247990
v 1.493002 3.641838 1.218728
v 1.529732 4.423041 -0.000447
v 1.493002 3.641838 -1.219622
v 1.405610 1.949884 2.298658
v -1.480272 1.949884 -2.299551
v 1.405610 1.949883 -2.299551
v -1.480272 1.949883 2.298658
v -0.518311 1.957920 2.298658
v 0.443650 1.957920 2.298658
v 0.443650 1.957920 -2.299551
v -0.518311 1.957920 -2.299551
v -1.480272 2.214613 -1.149999
v -1.480272 2.354379 -0.000447
v -1.480272 2.214614 1.149105
v 1.424521 2.523461 1.164172
v 1.373263 1.815268 -0.000447
v 1.424521 2.523461 -1.165065
vn 0.9980 -0.0607 0.0165
vn -0.9980 -0.0608 -0.0166
vn -0.9980 -0.0608 0.0166
vn -0.9981 -0.0603 0.0093
vn -0.9981 -0.0603 -0.0093
vn 0.9980 -0.0607 -0.0165
vn 0.9981 -0.0603 -0.0092
vn 0.9981 -0.0603 0.0092
vn 0.9975 0.0688 0.0149
vn -0.9975 0.0688 -0.0149
vn 0.9975 0.0688 -0.0149
vn 0.9976 0.0683 -0.0080
vn 0.9976 0.0683 0.0080
vn -0.9975 0.0688 0.0149
vn -0.9976 0.0683 0.0080
vn -0.9976 0.0683 -0.0080
vn -0.3299 0.9131 0.2397
vn -0.4362 0.8893 0.1372
vn -0.4362 0.8893 -0.1372
vn 0.3299 0.9131 0.2397
vn 0.3299 0.9131 -0.2397
vn 0.4362 0.8893 -0.1372
vn -0.3299 0.9131 -0.2397
vn 0.4362 0.8893 0.1372
vn 0.9980 -0.0611 -0.0150
vn -0.9981 -0.0603 -0.0081
vn -0.9981 -0.0603 0.0081
vn -0.9980 -0.0609 0.0150
vn -0.9980 -0.0609 -0.0150
vn 0.9980 -0.0611 0.0150
vn 0.9980 -0.0610 0.0131
vn -0.9980 -0.0611 -0.0130
vn -0.9980 -0.0611 0.0130
vn -0.9982 -0.0603 0.0065
vn -0.9982 -0.0603 -0.0065
vn 0.9981 -0.0610 -0.0131
vn 0.9982 -0.0604 -0.0065
vn 0.9982 -0.0604 0.0065
vn -0.7205 0.1830 0.6689
vn -0.6584 -0.4832 -0.5770
vn 0.7205 -0.1830 -0.6689
vn 0.6584 0.4832 0.5770
vn 0.2556 -0.8647 0.4325
vn 0.2033 0.6240 -0.7545
vn 0.6958 -0.0985 -0.7115
vn -0.6958 0.0985 0.7115
vn -0.8665 -0.1200 -0.4845
vn 0.4894 -0.0136 -0.8719
vn 0.8665 0.1200 0.4845
vn -0.4894 0.0136 0.8719
vn 0.1439 -0.9849 0.0961
vn 0.3826 0.9018 0.2007
vn 0.8528 0.2164 0.4753
vn -0.8528 -0.2164 -0.4753
vn -0.8665 -0.0307 -0.4982
vn 0.4894 0.1437 -0.8601
vn 0.8665 0.0307 0.4982
vn -0.4894 -0.1437 0.8601
vn 0.1439 -0.9861 -0.0828
vn 0.3826 0.8509 0.3599
vn 0.8528 0.1272 0.5065
vn -0.8528 -0.1272 -0.5065
vn 0.3690 -0.0851 0.9255
vn -0.9267 -0.1094 0.3594
vn -0.3690 0.0851 -0.9255
vn 0.9267 0.1094 -0.3594
vn 0.0510 -0.9844 -0.1682
vn -0.2578 0.8811 -0.3964
vn -0.3741 0.1814 -0.9095
vn 0.3741 -0.1814 0.9095
vn 0.9211 0.3877 -0.0359
vn 0.1589 -0.2901 0.9437
vn -0.9211 -0.3877 0.0359
vn -0.1589 0.2901 -0.9437
vn 0.3061 -0.8943 -0.3265
vn -0.7945 0.5299 0.2967
vn -0.9514 -0.3004 0.0679
vn 0.9514 0.3004 -0.0679
vn 0.6476 0.5261 -0.5512
vn 0.7459 -0.2899 0.5997
vn -0.6476 -0.5261 0.5512
vn -0.7459 0.2899 -0.5997
vn 0.1211 -0.8263 -0.5500
vn -0.4791 0.3920 0.7854
vn -0.6597 -0.4455 0.6052
vn 0.6597 0.4455 -0.6052
vn 0.6346 0.3441 -0.6920
vn 0.7684 -0.1851 0.6126
vn -0.6346 -0.3441 0.6920
vn -0.7684 0.1851 -0.6126
vn 0.0489 -0.9375 -0.3446
vn -0.4105 0.5918 0.6937
vn -0.6396 -0.2525 0.7260
vn 0.6396 0.2525 -0.7260
vn 0.8717 0.0224 0.4895
vn -0.4764 -0.1950 0.8573
vn -0.8717 -0.0224 -0.4895
vn 0.4764 0.1950 -0.8573
vn 0.0682 -0.9804 -0.1851
vn -0.5648 0.8152 -0.1285
vn -0.8787 0.0735 -0.4716
vn 0.8787 -0.0735 0.4716
vn 0.8528 0.1080 0.5110
vn -0.5097 -0.0408 0.8594
vn -0.8528 -0.1080 -0.5110
vn 0.5097 0.0408 -0.8594
vn 0.0682 -0.9976 -0.0069
vn -0.5538 0.7800 -0.2914
vn -0.8598 -0.0104 -0.5105
vn 0.8598 0.0104 0.5105
vn -0.3415 -0.0773 -0.9367
vn 0.9293 0.1213 -0.3489
vn 0.3415 0.0773 0.9367
vn -0.9293 -0.1213 0.3489
vn 0.1585 -0.9841 0.0801
vn 0.0648 0.8763 0.4774
vn 0.3262 0.1736 0.9292
vn -0.3262 -0.1736 -0.9292
vn -0.9824 0.1799 0.0512
vn -0.0928 -0.2309 -0.9685
vn 0.9824 -0.1799 -0.0512
vn 0.0928 0.2309 0.9685
vn -0.1100 -0.9644 0.2405
vn 0.6645 0.7100 -0.2329
vn 0.9935 -0.0856 -0.0748
vn -0.9935 0.0856 0.0748
vn -0.7486 0.2286 0.6224
vn -0.6611 -0.3294 -0.6741
vn 0.7486 -0.2286 -0.6224
vn 0.6611 0.3294 0.6742
vn 0.0906 -0.9270 0.3641
vn 0.3590 0.6501 -0.6697
vn 0.7400 -0.1380 -0.6583
vn -0.6611 -0.3294 -0.6742
vn -0.7400 0.1380 0.6583
vn 0.8929 0.0071 -0.4501
vn 0.4093 -0.4293 0.8051
vn -0.8929 -0.0071 0.4501
vn -0.4093 0.4293 -0.8051
vn -0.2346 -0.9023 -0.3618
vn -0.3214 0.7580 0.5675
vn -0.8704 0.0811 0.4857
vn 0.8704 -0.0811 -0.4857
vn 0.9083 -0.1329 -0.3966
vn 0.4083 0.0765 0.9096
vn -0.9083 0.1329 0.3966
vn -0.4083 -0.0765 -0.9096
vn -0.1387 -0.9797 0.1446
vn -0.4113 0.9050 0.1086
vn -0.8951 0.2288 0.3826
vn 0.8951 -0.2288 -0.3826
vn -0.1615 -0.1907 -0.9683
vn 0.9015 -0.4276 -0.0661
vn 0.1615 0.1907 0.9683
vn -0.9015 0.4276 0.0661
vn -0.3923 -0.8722 0.2921
vn 0.4254 0.8478 0.3166
vn 0.1999 0.2761 0.9401
vn -0.1999 -0.2761 -0.9401
vn 0.9982 -0.0601 0.0079
vn 0.9982 -0.0601 -0.0079
vn -0.1873 -0.9662 0.1770
vn 0.0000 1.0000 -0.0053
vn -0.0399 -0.1094 -0.9932
vn 0.0399 -0.1094 0.9932
vn -0.0399 -0.1094 0.9932
vn 0.0000 -0.1165 0.9932
vn 0.0399 -0.1094 -0.9932
vn 0.0000 -0.1165 -0.9932
vn 0.0000 1.0000 0.0053
vn -0.1704 0.9823 -0.0782
vn 0.1873 -0.9662 0.1770
vn 0.0000 -0.9854 0.1701
vn 0.0000 -0.9854 -0.1701
vn 0.0000 -0.9968 -0.0795
vn 0.0000 -0.9968 0.0795
vn 0.1873 -0.9662 -0.1770
vn 0.1699 -0.9818 -0.0850
vn 0.1699 -0.9818 0.0850
vn 0.0000 0.1686 0.9857
vn -0.0273 0.1543 0.9876
vn 0.0000 0.1686 -0.9857
vn 0.0273 0.1543 -0.9876
vn -0.0273 0.1543 -0.9876
vn 0.0273 0.1543 0.9876
vn 0.1704 0.9823 -0.0782
vn -0.1873 -0.9662 -0.1770
vn -0.1699 -0.9818 -0.0850
vn -0.1699 -0.9818 0.0850
vn 0.0000 0.9968 0.0795
vn 0.0000 0.9968 -0.0795
vn -0.1704 0.9823 0.0782
vn -0.0617 0.9948 0.0810
vn -0.0617 0.9948 -0.0810
vn 0.1704 0.9823 0.0782
vn 0.0617 0.9948 0.0810
vn 0.0617 0.9948 -0.0810
vn 0.4317 0.8623 0.2646
vn 0.0000 1.0000 -0.0000
vn -0.4317 0.8623 -0.2646
vn -0.4317 0.8623 0.2646
vn 0.4317 0.8623 -0.2646
vn 0.0143 -0.1083 -0.9940
vn -0.0143 -0.1083 0.9940
vn 0.0143 -0.1083 0.9940
vn -0.0143 -0.1083 -0.9940
vn 0.0107 -0.1042 -0.9945
vn -0.0107 -0.1042 0.9945
vn 0.0107 -0.1042 0.9945
vn 0.0000 -0.1097 0.9940
vn -0.0107 -0.1042 -0.9945
vn 0.0000 -0.1097 -0.9940
usemtl F44336
s off
f 262//1 249//1 188//1 208//1
f 259//2 251//2 186//2 205//2
f 252//3 257//3 203//3 185//3
f 257//4 258//4 204//4 203//4
f 258//5 259//5 205//5 204//5
f 250//6 260//6 206//6 187//6
f 260//7 261//7 207//7 206//7
f 261//8 262//8 208//8 207//8
f 214//9 223//9 224//9 213//9
f 210//10 227//10 228//10 209//10
f 222//11 230//11 241//11 237//11
f 237//12 241//12 242//12 238//12
f 238//13 242//13 223//13 214//13
f 211//14 226//14 243//14 239//14
f 239//15 243//15 244//15 240//15
f 240//16 244//16 227//16 210//16
f 206//17 243//17 226//17 187//17
f 207//18 244//18 243//18 206//18
f 208//19 227//19 244//19 207//19
f 186//20 224//20 223//20 205//20
f 203//21 241//21 230//21 185//21
f 204//22 242//22 241//22 203//22
f 188//23 228//23 227//23 208//23
f 205//24 223//24 242//24 204//24
f 263//25 274//25 260//25 250//25
f 272//26 273//26 259//26 258//26
f 271//27 272//27 258//27 257//27
f 264//28 271//28 257//28 252//28
f 273//29 266//29 251//29 259//29
f 276//30 265//30 249//30 262//30
f 202//31 184//31 265//31 276//31
f 199//32 181//32 266//32 273//32
f 183//33 197//33 271//33 264//33
f 197//34 198//34 272//34 271//34
f 198//35 199//35 273//35 272//35
f 182//36 200//36 274//36 263//36
f 200//37 201//37 275//37 274//37
f 201//38 202//38 276//38 275//38
usemtl FF9800
f 9//39 2//39 4//39 10//39
f 10//40 4//40 8//40 11//40
f 11//41 8//41 6//41 12//41
f 12//42 6//42 2//42 9//42
f 3//43 7//43 5//43 1//43
f 8//44 4//44 2//44 6//44
f 5//42 12//42 9//42 1//42
f 7//45 11//45 12//45 5//45
f 3//40 10//40 11//40 7//40
f 1//46 9//46 10//46 3//46
f 21//47 14//47 16//47 22//47
f 22//48 16//48 20//48 23//48
f 23//49 20//49 18//49 24//49
f 24//50 18//50 14//50 21//50
f 15//51 19//51 17//51 13//51
f 20//52 16//52 14//52 18//52
f 17//50 24//50 21//50 13//50
f 19//53 23//53 24//53 17//53
f 15//48 22//48 23//48 19//48
f 13//54 21//54 22//54 15//54
f 33//55 26//55 28//55 34//55
f 34//56 28//56 32//56 35//56
f 35//57 32//57 30//57 36//57
f 36//58 30//58 26//58 33//58
f 27//59 31//59 29//59 25//59
f 32//60 28//60 26//60 30//60
f 29//58 36//58 33//58 25//58
f 31//61 35//61 36//61 29//61
f 27//56 34//56 35//56 31//56
f 25//62 33//62 34//62 27//62
f 45//63 38//63 40//63 46//63
f 46//64 40//64 44//64 47//64
f 47//65 44//65 42//65 48//65
f 48//66 42//66 38//66 45//66
f 39//67 43//67 41//67 37//67
f 44//68 40//68 38//68 42//68
f 41//66 48//66 45//66 37//66
f 43//69 47//69 48//69 41//69
f 39//64 46//64 47//64 43//64
f 37//70 45//70 46//70 39//70
f 57//71 50//71 52//71 58//71
f 58//72 52//72 56//72 59//72
f 59//73 56//73 54//73 60//73
f 60//74 54//74 50//74 57//74
f 51//75 55//75 53//75 49//75
f 56//76 52//76 50//76 54//76
f 53//74 60//74 57//74 49//74
f 55//77 59//77 60//77 53//77
f 51//72 58//72 59//72 55//72
f 49//78 57//78 58//78 51//78
f 69//79 62//79 64//79 70//79
f 70//80 64//80 68//80 71//80
f 71//81 68//81 66//81 72//81
f 72//82 66//82 62//82 69//82
f 63//83 67//83 65//83 61//83
f 68//84 64//84 62//84 66//84
f 65//82 72//82 69//82 61//82
f 67//85 71//85 72//85 65//85
f 63//80 70//80 71//80 67//80
f 61//86 69//86 70//86 63//86
f 81//87 74//87 76//87 82//87
f 82//88 76//88 80//88 83//88
f 83//89 80//89 78//89 84//89
f 84//90 78//90 74//90 81//90
f 75//91 79//91 77//91 73//91
f 80//92 76//92 74//92 78//92
f 77//90 84//90 81//90 73//90
f 79//93 83//93 84//93 77//93
f 75//88 82//88 83//88 79//88
f 73//94 81//94 82//94 75//94
f 93//95 86//95 88//95 94//95
f 94//96 88//96 92//96 95//96
f 95//97 92//97 90//97 96//97
f 96//98 90//98 86//98 93//98
f 87//99 91//99 89//99 85//99
f 92//100 88//100 86//100 90//100
f 89//98 96//98 93//98 85//98
f 91//101 95//101 96//101 89//101
f 87//96 94//96 95//96 91//96
f 85//102 93//102 94//102 87//102
f 105//103 98//103 100//103 106//103
f 106//104 100//104 104//104 107//104
f 107//105 104//105 102//105 108//105
f 108//106 102//106 98//106 105//106
f 99//107 103//107 101//107 97//107
f 104//108 100//108 98//108 102//108
f 101//106 108//106 105//106 97//106
f 103//109 107//109 108//109 101//109
f 99//104 106//104 107//104 103//104
f 97//110 105//110 106//110 99//110
f 117//111 110//111 112//111 118//111
f 118//112 112//112 116//112 119//112
f 119//113 116//113 114//113 120//113
f 120//114 114//114 110//114 117//114
f 111//115 115//115 113//115 109//115
f 116//116 112//116 110//116 114//116
f 113//114 120//114 117//114 109//114
f 115//117 119//117 120//117 113//117
f 111//112 118//112 119//112 115//112
f 109//118 117//118 118//118 111//118
f 129//119 122//119 124//119 130//119
f 130//120 124//120 128//120 131//120
f 131//121 128//121 126//121 132//121
f 132//122 126//122 122//122 129//122
f 123//123 127//123 125//123 121//123
f 128//124 124//124 122//124 126//124
f 125//122 132//122 129//122 121//122
f 127//125 131//125 132//125 125//125
f 123//120 130//120 131//120 127//120
f 121//126 129//126 130//126 123//126
f 141//127 134//127 136//127 142//127
f 142//128 136//128 140//128 143//128
f 143//129 140//129 138//129 144//129
f 144//130 138//130 134//130 141//130
f 135//131 139//131 137//131 133//131
f 140//132 136//132 134//132 138//132
f 137//130 144//130 141//130 133//130
f 139//133 143//133 144//133 137//133
f 135//134 142//134 143//134 139//134
f 133//135 141//135 142//135 135//135
f 153//136 146//136 148//136 154//136
f 154//137 148//137 152//137 155//137
f 155//138 152//138 150//138 156//138
f 156//139 150//139 146//139 153//139
f 147//140 151//140 149//140 145//140
f 152//141 148//141 146//141 150//141
f 149//139 156//139 153//139 145//139
f 151//142 155//142 156//142 149//142
f 147//137 154//137 155//137 151//137
f 145//143 153//143 154//143 147//143
f 165//144 158//144 160//144 166//144
f 166//145 160//145 164//145 167//145
f 167//146 164//146 162//146 168//146
f 168//147 162//147 158//147 165//147
f 159//148 163//148 161//148 157//148
f 164//149 160//149 158//149 162//149
f 161//147 168//147 165//147 157//147
f 163//150 167//150 168//150 161//150
f 159//145 166//145 167//145 163//145
f 157//151 165//151 166//151 159//151
f 177//152 170//152 172//152 178//152
f 178//153 172//153 176//153 179//153
f 179//154 176//154 174//154 180//154
f 180//155 174//155 170//155 177//155
f 171//156 175//156 173//156 169//156
f 176//157 172//157 170//157 174//157
f 173//155 180//155 177//155 169//155
f 175//158 179//158 180//158 173//158
f 171//153 178//153 179//153 175//153
f 169//159 177//159 178//159 171//159
f 275//160 276//160 262//160 261//160
f 274//161 275//161 261//161 260//161
usemtl FFFFFF
f 218//162 191//162 184//162 202//162
f 231//163 212//163 236//163 235//163
f 256//164 252//164 185//164 196//164
f 254//165 250//165 187//165 194//165
f 251//166 253//166 193//166 186//166
f 253//167 254//167 194//167 193//167
f 249//168 255//168 195//168 188//168
f 255//169 256//169 196//169 195//169
f 245//170 247//170 232//170 221//170
f 237//171 245//171 221//171 222//171
f 197//172 183//172 192//172 215//172
f 215//173 192//173 191//173 218//173
f 189//174 217//174 220//174 190//174
f 217//175 216//175 219//175 220//175
f 216//176 215//176 218//176 219//176
f 181//177 199//177 217//177 189//177
f 199//178 198//178 216//178 217//178
f 198//179 197//179 215//179 216//179
f 232//180 234//180 229//180 221//180
f 209//181 228//181 234//181 232//181
f 231//182 233//182 225//182 212//182
f 213//183 224//183 233//183 231//183
f 212//184 225//184 226//184 211//184
f 221//185 229//185 230//185 222//185
f 247//186 210//186 209//186 232//186
f 190//187 220//187 200//187 182//187
f 220//188 219//188 201//188 200//188
f 219//189 218//189 202//189 201//189
f 235//190 236//190 248//190 246//190
f 246//191 248//191 247//191 245//191
f 213//192 231//192 235//192 214//192
f 214//193 235//193 246//193 238//193
f 238//194 246//194 245//194 237//194
f 212//195 211//195 239//195 236//195
f 236//196 239//196 240//196 248//196
f 248//197 240//197 210//197 247//197
f 193//198 233//198 224//198 186//198
f 194//199 225//199 233//199 193//199
f 195//200 234//200 228//200 188//200
f 196//199 229//199 234//199 195//199
f 187//201 226//201 225//201 194//201
f 185//202 230//202 229//202 196//202
f 269//169 270//169 256//169 255//169
f 265//203 269//203 255//203 249//203
f 267//167 268//167 254//167 253//167
f 266//204 267//204 253//204 251//204
f 268//205 263//205 250//205 254//205
f 270//206 264//206 252//206 256//206
f 192//207 183//207 264//207 270//207
f 190//208 182//208 263//208 268//208
f 181//209 189//209 267//209 266//209
f 189//210 190//210 268//210 267//210
f 184//211 191//211 269//211 265//211
f 191//212 192//212 270//212 269//212
